<svg width="11" height="13" viewBox="0 0 11 13" fill="none" xmlns="http://www.w3.org/2000/svg">
<path opacity="0.5" d="M10.6082 9.00781C10.1628 8.51562 9.29565 7.78906 9.29565 5.375C9.29565 3.57031 8.03003 2.11719 6.29565 1.74219V1.25C6.29565 0.851562 5.96753 0.5 5.56909 0.5C5.14722 0.5 4.81909 0.851562 4.81909 1.25V1.74219C3.08472 2.11719 1.81909 3.57031 1.81909 5.375C1.81909 7.78906 0.951904 8.51562 0.506592 9.00781C0.365967 9.14844 0.295654 9.33594 0.319092 9.5C0.319092 9.89844 0.600342 10.25 1.06909 10.25H10.0457C10.5144 10.25 10.7957 9.89844 10.8191 9.5C10.8191 9.33594 10.7488 9.14844 10.6082 9.00781ZM1.8894 9.125C2.38159 8.49219 2.92065 7.39062 2.94409 5.39844C2.94409 5.39844 2.94409 5.39844 2.94409 5.375C2.94409 3.94531 4.11597 2.75 5.56909 2.75C6.99878 2.75 8.19409 3.94531 8.19409 5.375C8.19409 5.39844 8.17065 5.39844 8.17065 5.39844C8.19409 7.39062 8.73315 8.49219 9.22534 9.125H1.8894ZM5.56909 12.5C6.3894 12.5 7.04565 11.8438 7.04565 11H4.06909C4.06909 11.8438 4.72534 12.5 5.56909 12.5Z" fill="black"/>
</svg>
